# xmcd
#
# Track frame offsets: 
#        150
#        15540
#        46697
#        62172
#        73542
#        88440
#        108622
#        121800
#        135085
#        151490
#        173042
#        191452
#        203247
#        220710
#        235735
#        250960
#        263620
#        276812
#        294847
#        310055
#
# Disc length: 4303 seconds
#
# Revision: 8
# Processed by: cddbd v1.5.2PL0 Copyright (c) Steve Scherf et al.
# Submitted via: ExactAudioCopy v0.99pb4
#
DISCID=1210cd14
DTITLE=Dwight Yoakam - Reprise Please Baby (The Warner Bros. Years) - 
DTITLE=Disc 2
DYEAR=2002
DGENRE=Country
TTITLE0=Carmelita (Flaco Jimenez Featuring Dwight Yoakam)
TTITLE1=Suspicious Minds (Live)
TTITLE2=Doin' What I Did
TTITLE3=Hey Little Girl
TTITLE4=Ain't That Lonely Yet
TTITLE5=A Thousand Miles From Nowhere
TTITLE6=Try Not To Look So Pretty
TTITLE7=Pocket Of A Clown
TTITLE8=Home For Sale
TTITLE9=Fast As You
TTITLE10=King Of Fools
TTITLE11=Holding Things Together
TTITLE12=Nothing
TTITLE13=Don't Be Sad
TTITLE14=Sorry You Asked?
TTITLE15=Gone (That'll Be Me)
TTITLE16=Claudette
TTITLE17=Baby Don't Go (With Sheryl Crow)
TTITLE18=Train In Vain
TTITLE19=Rapid City, South Dakota
EXTD=
EXTT0=
EXTT1=
EXTT2=
EXTT3=
EXTT4=
EXTT5=
EXTT6=
EXTT7=
EXTT8=
EXTT9=
EXTT10=
EXTT11=
EXTT12=
EXTT13=
EXTT14=
EXTT15=
EXTT16=
EXTT17=
EXTT18=
EXTT19=
PLAYORDER=
